<?xml version="1.0" standalone="no"?><!DOCTYPE svg PUBLIC "-//W3C//DTD SVG 1.1//EN" "http://www.w3.org/Graphics/SVG/1.1/DTD/svg11.dtd"><svg t="1609574413541" class="icon" viewBox="0 0 1024 1024" version="1.1" xmlns="http://www.w3.org/2000/svg" p-id="2834" xmlns:xlink="http://www.w3.org/1999/xlink" width="32" height="32"><defs><style type="text/css"></style></defs><path d="M511.1 959.6c-40.4 0-78.9-19.5-93.4-26.9l-6.4-3.2c-48.4-24.5-89-61.9-117.4-108.2s-43.4-99.3-43.4-153.6V398.2c0-33.7 27.5-61.2 61.2-61.2h397.8c33.7 0 61.2 27.5 61.2 61.2v262.3c0 56.4-15.6 111.6-45.1 159.7s-71.7 87-122 112.5l-0.5 0.2c-15.7 8-52.5 26.6-91.9 26.7h-0.1zM311.8 385c-7.3 0-13.2 5.9-13.2 13.2v269.5c0 45.4 12.6 89.8 36.3 128.5s57.7 70 98.2 90.5l6.4 3.2c11.7 5.9 42.8 21.7 71.7 21.7h0.1c28 0 57.6-15 70.2-21.5l0.5-0.2c42.4-21.5 78-54.3 102.8-94.8 24.9-40.5 38-87 38-134.6V398.2c0-7.3-5.9-13.2-13.2-13.2H311.8z" fill="#ffffff" p-id="2835" data-spm-anchor-id="a313x.7781069.0.i2" class="selected"></path><path d="M785.5 380.1v-30.4c0-76.5-62.6-139-139-139H377.3c-76.5 0-139 62.6-139 139v30.4c0 24.7 20 44.7 44.7 44.7h457.8c24.7 0 44.7-20 44.7-44.7z" fill="#FFFFFF" p-id="2836"></path><path d="M740.8 448.8H283c-37.9 0-68.7-30.8-68.7-68.7v-30.4c0-89.9 73.1-163 163-163h269.2c89.9 0 163 73.1 163 163v30.4c0 37.9-30.8 68.7-68.7 68.7zM377.3 234.6c-30.6 0-59.4 12-81.2 33.8s-33.8 50.6-33.8 81.2V380c0 11.4 9.3 20.7 20.7 20.7h457.8c11.4 0 20.7-9.3 20.7-20.7v-30.4c0-30.6-12-59.4-33.8-81.2-21.8-21.8-50.6-33.8-81.2-33.8H377.3z" fill="#ffffff" p-id="2837" data-spm-anchor-id="a313x.7781069.0.i1" class="selected"></path><path d="M508.6 248.9V137.8s-0.8-48.6 26.6-48.6" fill="#FFFFFF" p-id="2838"></path><path d="M508.6 272.9c-13.3 0-24-10.7-24-24V138c-0.1-7.1 0.5-40.6 19.2-59.5 8.5-8.6 19.4-13.2 31.4-13.2 13.3 0 24 10.7 24 24 0 12.6-9.7 22.9-22 23.9-2.5 4.2-4.7 15.4-4.6 24.3V248.9c0 13.3-10.7 24-24 24z" fill="#ffffff" p-id="2839" data-spm-anchor-id="a313x.7781069.0.i3" class="selected"></path><path d="M428.4 824.2c-5.2 0-10.5-1.7-14.9-5.2-76.5-61-75.4-135-74.7-146.9l-0.2-44.9c0-13.3 10.7-24 23.9-24.1h0.1c13.2 0 24 10.7 24 23.9l0.2 45.8c0 0.9 0 1.4-0.1 2.3-0.3 3.8-2.9 58.8 56.7 106.3 10.4 8.3 12.1 23.4 3.8 33.7-4.7 6-11.7 9.1-18.8 9.1z" fill="#434462" opacity=".5" p-id="2840"></path><path d="M594.6 824.2c-7.1 0-14-3.1-18.8-9-8.3-10.4-6.6-25.5 3.8-33.7 26.1-20.8 43.6-45.5 52-73.4 5.8-19.2 4.8-32.7 4.8-32.8-0.1-0.8-0.1-1.6-0.1-2.4l0.2-45.8c0-13.2 10.8-23.9 24-23.9h0.1c13.3 0 24 10.8 23.9 24.1l-0.2 44.9c0.7 11.8 1.8 85.8-74.7 146.8-4.4 3.5-9.7 5.2-15 5.2z" fill="#434462" opacity=".5" p-id="2841"></path><path d="M319.8 320.2m-24 0a24 24 0 1 0 48 0 24 24 0 1 0-48 0Z" fill="#434462" opacity=".5" p-id="2842"></path><path d="M385.4 360.1m-24 0a24 24 0 1 0 48 0 24 24 0 1 0-48 0Z" fill="#434462" opacity=".5" p-id="2843"></path><path d="M449.3 320.5m-24 0a24 24 0 1 0 48 0 24 24 0 1 0-48 0Z" fill="#434462" opacity=".5" p-id="2844"></path><path d="M512.2 360.1m-24 0a24 24 0 1 0 48 0 24 24 0 1 0-48 0Z" fill="#434462" opacity=".5" p-id="2845"></path><path d="M577.4 320.5m-24 0a24 24 0 1 0 48 0 24 24 0 1 0-48 0Z" fill="#434462" opacity=".5" p-id="2846"></path><path d="M641.4 360.1m-24 0a24 24 0 1 0 48 0 24 24 0 1 0-48 0Z" fill="#434462" opacity=".5" p-id="2847"></path><path d="M704.6 320.2m-24 0a24 24 0 1 0 48 0 24 24 0 1 0-48 0Z" fill="#434462" opacity=".5" p-id="2848"></path></svg>